<svg xmlns="http://www.w3.org/2000/svg" version="1.1" xmlns:xlink="http://www.w3.org/1999/xlink" xmlns:svgjs="http://svgjs.dev/svgjs" width="2000" height="1500" viewBox="0 0 2000 1500"><rect width="2000" height="1500" fill="#ffffff"></rect><g transform="matrix(0.75,0,0,0.75,250,281.25)"><svg viewBox="0 0 576 360" data-background-color="#ffffff" preserveAspectRatio="xMidYMid meet" height="1250" width="2000" xmlns="http://www.w3.org/2000/svg" xmlns:xlink="http://www.w3.org/1999/xlink"><g id="tight-bounds" transform="matrix(1,0,0,1,0,0)"><svg viewBox="0 0 576 360" height="360" width="576"><g><svg></svg></g><g><svg viewBox="0 0 576 360" height="360" width="576"><g><path xmlns="http://www.w3.org/2000/svg" d="M132.115 90l155.885-90 155.885 90v180l-155.885 90-155.885-90zM136.462 267.491l151.538 87.49 151.538-87.49v-174.982l-151.538-87.49-151.538 87.49z" fill="#24670f" fill-rule="nonzero" stroke="none" stroke-width="1" stroke-linecap="butt" stroke-linejoin="miter" stroke-miterlimit="10" stroke-dasharray="" stroke-dashoffset="0" font-family="none" font-weight="none" font-size="none" text-anchor="none" style="mix-blend-mode: normal" data-fill-palette-color="tertiary"></path></g><g transform="matrix(1,0,0,1,172.8,155.90295489891136)"><svg viewBox="0 0 230.39999999999998 48.19409020217729" height="48.19409020217729" width="230.39999999999998"><g><svg viewBox="0 0 230.39999999999998 48.19409020217729" height="48.19409020217729" width="230.39999999999998"><g><svg viewBox="0 0 230.39999999999998 48.19409020217729" height="48.19409020217729" width="230.39999999999998"><g><svg viewBox="0 0 230.39999999999998 48.19409020217729" height="48.19409020217729" width="230.39999999999998"><g><svg viewBox="0 0 230.39999999999998 48.19409020217729" height="48.19409020217729" width="230.39999999999998"><g><svg viewBox="0 0 230.39999999999998 48.19409020217729" height="48.19409020217729" width="230.39999999999998"><g transform="matrix(1,0,0,1,0,0)"><svg width="230.39999999999998" viewBox="4 -39.95000076293945 192.88999938964844 40.35000228881836" height="48.19409020217729" data-palette-color="#4d7e3e"><path d="M26.15-10.5L26.15-37.55Q26.15-39.95 29.1-39.95L29.1-39.95Q32.05-39.95 32.05-37.55L32.05-37.55 32.05-3.05Q32.05-1.3 30.2-0.5L30.2-0.5 30.25-0.5Q29.45-0.15 28.55 0.05 27.65 0.25 26.8 0.25L26.8 0.25Q26.15 0.25 25.45 0.13 24.75 0 24.13-0.28 23.5-0.55 22.98-1.03 22.45-1.5 22.15-2.2L22.15-2.2 11.3-29.25 9.95-29.1 9.95-2.1Q9.95 0.3 6.95 0.3L6.95 0.3Q4 0.3 4-2.1L4-2.1 4-36.55Q4-38.6 5.8-39.3L5.8-39.3Q7.45-39.95 9.3-39.95L9.3-39.95Q10.6-39.95 11.93-39.43 13.25-38.9 13.95-37.45L13.95-37.45 24.75-10.35 26.15-10.5ZM47.05-30.1L55.05-30.1Q56.35-30.1 57.72-29.55 59.1-29 60.4-28.15L60.4-28.15 60.35-28.15Q61.65-27.2 62.35-25.68 63.05-24.15 63.05-22.15L63.05-22.15 63.05-7.95Q63.05-3.85 60.35-1.9L60.35-1.9Q57.7 0 55.05 0L55.05 0 47.05 0Q45.75 0 44.4-0.45 43.05-0.9 41.75-1.9L41.75-1.9Q39.05-3.8 39.05-7.95L39.05-7.95 39.05-22.15Q39.05-24.15 39.75-25.68 40.45-27.2 41.75-28.15L41.75-28.15 41.7-28.15Q42.95-29 44.35-29.55 45.75-30.1 47.05-30.1L47.05-30.1ZM47.95-4.7L54.15-4.7Q56-4.7 56.77-5.75 57.55-6.8 57.55-8L57.55-8 57.55-22.1Q57.55-23.35 56.77-24.38 56-25.4 54.15-25.4L54.15-25.4 47.95-25.4Q46.1-25.4 45.32-24.38 44.55-23.35 44.55-22.1L44.55-22.1 44.55-8Q44.55-6.8 45.32-5.75 46.1-4.7 47.95-4.7L47.95-4.7ZM93.4-28L93.4-7.95Q93.4-5.95 92.7-4.4 92-2.85 90.7-1.9L90.7-1.9 90.75-1.9Q89.5-1.05 88.09-0.53 86.7 0 85.4 0L85.4 0 77.34 0Q76.09 0 74.67-0.53 73.25-1.05 72-1.9L72-1.9 72.05-1.9Q70.75-2.85 70.05-4.4 69.34-5.95 69.34-7.95L69.34-7.95 69.34-28Q69.34-30.4 72.09-30.4L72.09-30.4Q74.84-30.4 74.84-28L74.84-28 74.84-8.35Q74.84-6.95 75.55-5.9L75.55-5.9Q76.2-4.7 78.25-4.7L78.25-4.7 84.5-4.7Q86.5-4.7 87.15-5.9L87.15-5.9 87.09-5.85Q87.9-7.05 87.9-8.35L87.9-8.35 87.9-28Q87.9-30.4 90.65-30.4L90.65-30.4Q93.4-30.4 93.4-28L93.4-28ZM115.14-1.95L115.14-21.75Q115.14-22.4 114.94-23.03 114.74-23.65 114.44-24.2L114.44-24.2Q113.79-25.4 111.74-25.4L111.74-25.4 108.54-25.4Q106.49-25.4 105.79-24.2L105.79-24.2Q105.19-23.05 105.19-21.75L105.19-21.75 105.19-1.95Q105.19 0.4 102.44 0.4L102.44 0.4Q99.59 0.4 99.59-1.95L99.59-1.95 99.59-22.2Q99.59-26.3 102.29-28.2L102.29-28.2Q105.04-30.1 107.64-30.1L107.64-30.1 112.69-30.1Q113.84-30.1 115.24-29.65 116.64-29.2 117.94-28.25L117.94-28.25Q119.19-29.2 120.57-29.65 121.94-30.1 123.19-30.1L123.19-30.1 128.19-30.1Q130.84-30.1 133.49-28.2L133.49-28.2Q136.24-26.35 136.24-22.2L136.24-22.2 136.24-1.95Q136.24 0.4 133.44 0.4L133.44 0.4Q130.64 0.4 130.64-1.95L130.64-1.95 130.64-21.75Q130.64-22.4 130.49-23.05 130.34-23.7 129.94-24.25L129.94-24.25 129.99-24.2Q129.59-24.85 128.99-25.13 128.39-25.4 127.24-25.4L127.24-25.4 124.09-25.4Q121.99-25.4 121.34-24.2L121.34-24.2Q120.69-23.1 120.69-21.75L120.69-21.75 120.69-1.95Q120.69 0.4 117.94 0.4L117.94 0.4Q115.14 0.4 115.14-1.95L115.14-1.95ZM156.44 0L149.89 0Q148.34 0 146.94-0.43 145.54-0.85 144.24-1.65L144.24-1.65 144.24-1.6Q141.79-3.15 141.79-7.3L141.79-7.3 141.79-9.75Q141.79-11.8 142.52-13.33 143.24-14.85 144.54-15.75L144.54-15.75 144.49-15.75Q145.74-16.6 147.14-17.03 148.54-17.45 149.84-17.45L149.84-17.45 160.89-17.45 160.89-22.1Q160.89-23.35 160.12-24.38 159.34-25.4 157.49-25.4L157.49-25.4 151.64-25.4Q149.74-25.4 149.02-24.48 148.29-23.55 148.29-22.3L148.29-22.3 148.29-21.9Q148.29-19.3 145.49-19.3L145.49-19.3Q142.69-19.3 142.69-21.9L142.69-21.9 142.69-22.35Q142.69-24.4 143.42-25.8 144.14-27.2 145.39-28.15L145.39-28.15 145.34-28.15Q146.64-29 148.07-29.55 149.49-30.1 150.79-30.1L150.79-30.1 158.39-30.1Q159.64-30.1 161.07-29.55 162.49-29 163.74-28.15L163.74-28.15 163.69-28.15Q164.99-27.2 165.69-25.68 166.39-24.15 166.39-22.15L166.39-22.15 166.39-2.1Q166.39 0.3 163.64 0.3L163.64 0.3Q163.09 0.3 162.62 0.25 162.14 0.2 161.77-0.03 161.39-0.25 161.17-0.68 160.94-1.1 160.94-1.8L160.94-1.8 160.89-12.75 150.79-12.75Q149.69-12.75 149.09-12.5 148.49-12.25 148.14-11.7L148.14-11.7Q147.74-10.85 147.57-10.38 147.39-9.9 147.39-9.3L147.39-9.3 147.39-7.35Q147.39-6.05 148.17-5.38 148.94-4.7 150.84-4.7L150.84-4.7 156.44-4.7Q158.29-4.7 158.29-2.35L158.29-2.35Q158.29-1.35 157.84-0.68 157.39 0 156.44 0L156.44 0ZM178.34-21.75L178.34-2.1Q178.34 0.3 175.59 0.3L175.59 0.3Q172.84 0.3 172.84-2.1L172.84-2.1 172.84-22.2Q172.84-24.25 173.49-25.75 174.14-27.25 175.54-28.2L175.54-28.2Q178.19-30.1 180.84-30.1L180.84-30.1 188.89-30.1Q191.44-30.1 194.19-28.2L194.19-28.2Q196.89-26.3 196.89-22.2L196.89-22.2 196.89-2.1Q196.89 0.3 194.14 0.3L194.14 0.3Q191.39 0.3 191.39-2.1L191.39-2.1 191.39-21.75Q191.39-23.05 190.59-24.25L190.59-24.25 190.64-24.2Q189.99-25.4 187.99-25.4L187.99-25.4 181.74-25.4Q179.69-25.4 179.04-24.2L179.04-24.2Q178.34-23.15 178.34-21.75L178.34-21.75Z" opacity="1" transform="matrix(1,0,0,1,0,0)" fill="#4d7e3e" class="undefined-text-0" data-fill-palette-color="primary" id="text-0"></path></svg></g></svg></g></svg></g></svg></g><g></g></svg></g></svg></g></svg></g></svg></g><defs></defs></svg><rect width="576" height="360" fill="none" stroke="none" visibility="hidden"></rect></g></svg></g></svg>